M48
; DRILL file {KiCad 7.0.5} date Tue Mar 26 12:32:15 2024
; FORMAT={-:-/ absolute / metric / decimal}
; #@! TF.CreationDate,2024-03-26T12:32:15+04:00
; #@! TF.GenerationSoftware,Kicad,Pcbnew,7.0.5
; #@! TF.FileFunction,Plated,1,2,PTH
FMAT,2
METRIC
; #@! TA.AperFunction,Plated,PTH,ComponentDrill
T1C0.800
; #@! TA.AperFunction,Plated,PTH,ComponentDrill
T2C1.000
; #@! TA.AperFunction,Plated,PTH,ComponentDrill
T3C1.100
; #@! TA.AperFunction,Plated,PTH,ComponentDrill
T4C1.200
; #@! TA.AperFunction,Plated,PTH,ComponentDrill
T5C1.520
; #@! TA.AperFunction,Plated,PTH,ComponentDrill
T6C1.600
%
G90
G05
T1
X110.5Y85.1
X110.5Y87.64
X110.5Y90.18
X110.5Y92.72
X118.12Y85.1
X118.12Y87.64
X118.12Y90.18
X118.12Y92.72
T2
X99.06Y82.61
X99.06Y90.11
X109.22Y104.14
X119.22Y104.14
X144.78Y83.825
X144.78Y99.065
T3
X106.68Y116.84
X109.22Y116.84
X111.76Y116.84
T4
X99.06Y95.25
X99.06Y107.95
X120.65Y119.38
X123.19Y76.2
X124.46Y82.55
X124.46Y95.25
X132.08Y104.14
X132.08Y111.64
X133.35Y119.38
X135.89Y76.2
X144.78Y105.41
X144.78Y118.11
T5
X119.38Y66.04
X119.38Y132.08
X124.46Y66.04
X124.46Y132.08
T6
X134.62Y81.28
X134.62Y96.52
T0
M30
